<?xml version="1.0" encoding="utf-8"?>
<!-- Generator: Adobe Illustrator 26.3.1, SVG Export Plug-In . SVG Version: 6.00 Build 0)  -->
<svg version="1.1" id="Layer_1" xmlns="http://www.w3.org/2000/svg" xmlns:xlink="http://www.w3.org/1999/xlink" x="0px" y="0px"
	 viewBox="0 0 243.2 82.6" style="enable-background:new 0 0 243.2 82.6;" xml:space="preserve">
<g>
	<path d="M14,35.4l-2.8,7.3H0L18,0.2h10l17.9,42.5H34.7l-2.9-7.3H14z M22.9,12.4l-5.5,14h10.9L22.9,12.4z"/>
	<path d="M60.9,30.4v12.2H50.4V0.4h18.5c10.4,0,17.5,5.7,17.5,14.8c0,5.9-3,10.6-8.1,13.1l10.9,14.3H76.5l-9.1-12.2H60.9z M68.6,21
		c4,0,7.3-2.2,7.3-5.7c0-3.4-3.2-5.6-7.3-5.6h-7.8V21H68.6z"/>
	<path d="M104.9,35.4l-2.8,7.3H90.9l18-42.5h10l17.9,42.5h-11.1l-2.9-7.3H104.9z M113.9,12.4l-5.5,14h10.9L113.9,12.4z"/>
	<path d="M178.6,30.9c0,7-5.7,11.7-15.2,11.7h-22.1V0.4h20.9c9.1,0,14.5,4.3,14.5,11.2c0,3.9-2.2,8-5.9,9.3
		C176,22.1,178.6,26.4,178.6,30.9z M151.8,17.6h8.8c3.9,0,6.1-1.8,6.1-4.5c0-2.7-2-4.1-6.1-4.1h-8.8V17.6z M162.1,34
		c4.3,0,6.2-1.9,6.2-4.4c0-2.6-2.2-3.9-6-3.9h-10.4V34H162.1z"/>
	<path d="M194.9,42.7h-10.5V0.4h10.5V42.7z"/>
	<path d="M232.9,25h10.3c-1.3,10.5-9.2,17.7-20.3,17.7c-12.2,0-21.5-8.9-21.5-21.1c0-12.2,9.2-21.1,21.5-21.1
		c11.1,0,19.1,7.2,20.3,17.7h-10.3c-1.1-5.1-4.7-8.2-10.1-8.2c-6.6,0-11.2,5-11.2,11.7c0,6.7,4.6,11.7,11.2,11.7
		C228.2,33.2,231.8,30.1,232.9,25z"/>
</g>
<g>
	<path d="M11.1,60.7v21.4H8.7V60.7h-8.7v-2.3h19.9v2.3H11.1z"/>
	<path d="M31.8,69.2h12.5v2.3H31.8v8.3h13.8v2.3H29.3V58.4h16.3v2.3H31.8V69.2z"/>
	<path d="M79.3,82.1h-2.4l0-18.2l-8.1,13.6h-1.7L59,63.8l0.1,18.3h-2.4V58.4h1.9l9.5,16l9.5-16h1.9V82.1z"/>
	<path d="M99.6,58.4c5.4,0,9,3.1,9,7.8c0,4.8-3.7,8-9.3,8h-5.4v7.8h-2.4V58.4H99.6z M99.5,72c4,0,6.7-2.3,6.7-5.8
		c0-3.3-2.7-5.6-6.7-5.6h-5.6V72H99.5z"/>
	<path d="M134.2,82.1h-15.5V58.4h2.4v21.4h13.1V82.1z"/>
	<path d="M147.5,75.2l-3,6.9h-2.6l10.7-23.8h2.3l10.7,23.8h-2.6l-3-6.9H147.5z M153.6,61.2l-5.1,11.7h10.3L153.6,61.2z"/>
	<path d="M181.2,60.7v21.4h-2.4V60.7H170v-2.3h19.9v2.3H181.2z"/>
	<path d="M201.9,69.2h12.5v2.3h-12.5v8.3h13.8v2.3h-16.3V58.4h16.3v2.3h-13.8V69.2z"/>
	<path d="M243.2,64.8h-2.4c-0.6-2.9-2.6-4.8-6.6-4.8c-3.6,0-5.9,1.7-5.9,4.5c0,2.2,1.7,3.5,4.8,4l3.6,0.7c4.2,0.8,6.5,2.8,6.5,6.2
		c0,4.3-3.5,7.2-8.7,7.2c-5.6,0-9.2-3-9.8-8.1h2.4c0.6,3.7,3.1,5.8,7.4,5.8c3.8,0,6.1-1.8,6.1-4.7c0-2-1.4-3.5-4.4-4l-4.1-0.8
		c-4.3-0.8-6.5-3-6.5-6.2c0-4.1,3.3-6.8,8.3-6.8C238.8,57.9,242.6,60.2,243.2,64.8z"/>
</g>
</svg>
